<?xml version="1.0" encoding="UTF-8" standalone="no"?>
<!-- Created with Inkscape (http://www.inkscape.org/) -->

<svg
   xmlns:dc="http://purl.org/dc/elements/1.1/"
   xmlns:cc="http://creativecommons.org/ns#"
   xmlns:rdf="http://www.w3.org/1999/02/22-rdf-syntax-ns#"
   xmlns:svg="http://www.w3.org/2000/svg"
   xmlns="http://www.w3.org/2000/svg"
   xmlns:sodipodi="http://sodipodi.sourceforge.net/DTD/sodipodi-0.dtd"
   xmlns:inkscape="http://www.inkscape.org/namespaces/inkscape"
   width="606mm"
   height="606mm"
   viewBox="0 0 606 605.99998"
   version="1.1"
   id="svg823"
   inkscape:version="0.92.2 (5c3e80d, 2017-08-06)"
   sodipodi:docname="SSS.svg">
  <defs
     id="defs817" />
  <sodipodi:namedview
     id="base"
     pagecolor="#ffffff"
     bordercolor="#666666"
     borderopacity="1.0"
     inkscape:pageopacity="0.0"
     inkscape:pageshadow="2"
     inkscape:zoom="0.19449504"
     inkscape:cx="868.23182"
     inkscape:cy="657.25307"
     inkscape:document-units="mm"
     inkscape:current-layer="layer1"
     showgrid="false"
     inkscape:window-width="1920"
     inkscape:window-height="1057"
     inkscape:window-x="-8"
     inkscape:window-y="-8"
     inkscape:window-maximized="1"
     inkscape:snap-global="false" />
  <metadata
     id="metadata820">
    <rdf:RDF>
      <cc:Work
         rdf:about="">
        <dc:format>image/svg+xml</dc:format>
        <dc:type
           rdf:resource="http://purl.org/dc/dcmitype/StillImage" />
        <dc:title></dc:title>
      </cc:Work>
    </rdf:RDF>
  </metadata>
  <g
     inkscape:label="Layer 1"
     inkscape:groupmode="layer"
     id="layer1"
     transform="translate(0,309)">
    <rect
       style="opacity:1;fill:#000000;fill-opacity:1;fill-rule:nonzero;stroke:none;stroke-width:0.0664286;stroke-linecap:square;stroke-linejoin:round;stroke-miterlimit:10;stroke-dasharray:none;stroke-opacity:1;paint-order:stroke fill markers"
       id="rect1368"
       width="604"
       height="604"
       x="1"
       y="-308"
       rx="52"
       ry="52" />
    <rect
       ry="50"
       rx="50"
       y="-306"
       x="3"
       height="600"
       width="600"
       id="rect1370"
       style="opacity:1;fill:#ffffff;fill-opacity:1;fill-rule:nonzero;stroke:none;stroke-width:0.06598867;stroke-linecap:square;stroke-linejoin:round;stroke-miterlimit:10;stroke-dasharray:none;stroke-opacity:1;paint-order:stroke fill markers" />
    <path
       style="opacity:1;fill:none;fill-opacity:1;fill-rule:nonzero;stroke:#dc0000;stroke-width:100.00021362;stroke-linecap:round;stroke-linejoin:round;stroke-miterlimit:1.41400003;stroke-dasharray:none;stroke-opacity:1;paint-order:normal"
       d="M 541.40359,203.9999 64.596386,203.99978 302.99969,-208.92704 Z"
       id="path17202"
       inkscape:connector-curvature="0"
       sodipodi:nodetypes="cccc" />
    <path
       sodipodi:nodetypes="cccc"
       inkscape:connector-curvature="0"
       id="path17204"
       d="m 302.99969,-188.92707 221.0832,382.92682 -442.165804,4e-4 z"
       style="opacity:1;fill:#ffffff;fill-opacity:1;fill-rule:nonzero;stroke:none;stroke-width:0.95461363;stroke-linecap:square;stroke-linejoin:miter;stroke-miterlimit:1.41400003;stroke-dasharray:none;stroke-opacity:1;paint-order:markers stroke fill" />
    <path
       d="m 255.45719,-218.9832 c 5.4449,-9.07495 13.0679,-16.69782 22.5057,-21.77977 9.4379,-5.44497 19.9648,-7.9859 30.8546,-7.9859 10.8899,0 21.4168,2.54093 30.8546,7.9859 9.4379,5.08195 17.0609,12.70482 22.5057,21.77977"
       style="fill:none;stroke:none;stroke-width:2.61356831;stroke-linecap:butt;stroke-linejoin:round;stroke-miterlimit:1.41400003;stroke-dasharray:none;stroke-opacity:1"
       id="path1403"
       inkscape:connector-curvature="0" />
    <path
       d="M 113,179 205.376,19.000001 493,179"
       style="fill:#000000;fill-opacity:1;fill-rule:nonzero;stroke:none;stroke-width:3.60531354"
       id="path1943"
       inkscape:connector-curvature="0"
       sodipodi:nodetypes="ccc" />
    <path
       d="m 381.59623,98.24106 29.20302,16.58435 c 0.72561,-1.08156 1.08125,-2.16312 1.80175,-2.88423 0.35769,-1.08156 0.7256,-2.16312 1.08227,-3.24478 -0.35769,-3.96578 1.44201,-7.57112 5.04755,-9.73434 1.08125,-7.57112 -0.7256,-15.14223 -4.68679,-21.63179 l -0.7256,-3.24478 -3.9663,-1.80267 -2.1625,-2.16322 -16.2239,-7.93167 v -1.80267 l -10.0951,-19.82923 -2.16353,-7.93168 -2.1625,-6.129 -14.0614,-19.46868 -30.64503,-18.02657 -22.71346,4.32634 -12.25761,7.57122 -18.3874,3.96579 -12.2576,2.16322 -1.8028,5.76845 -4.327,5.76855 -3.9653,6.12901 v 1.80267 l 8.2923,3.96578 12.9791,8.65278 c 4.6868,-5.76845 12.9792,-7.21056 19.108,-3.24478 2.88397,1.80267 5.0475,4.32634 6.12875,7.93168 1.08228,3.60533 0.72561,7.21066 -0.7256,10.09489 l 55.52202,31.00568 c 1.44201,-3.24478 4.32603,-6.48956 8.65206,-7.93167 4.32705,-1.80267 8.65309,-1.08166 11.89787,0.72152 2.88402,1.80267 5.76804,5.04744 6.48956,9.73434 1.08125,4.32644 -0.72561,8.29222 -2.88403,10.816 M 349.13924,33.70642 c -0.72561,0 -2.16353,0 -2.88505,0.36076 -1.08125,0.36076 -2.1625,1.08166 -2.88402,1.80267 L 301.90955,10.99317 c -0.35769,0 -0.7256,-0.36076 -0.7256,-0.72152 0,-0.36076 0.35769,-0.72151 0.35769,-1.08156 4.32603,-3.60533 9.37358,-6.48956 15.14264,-8.29222 5.76805,-1.80267 11.89685,-2.16322 17.66591,-1.80267 l 14.42113,10.09489 c 10.8156,5.04735 18.74717,14.78169 21.27145,26.31869 2.52327,4.32644 4.32603,9.37389 5.40729,14.42124 0.35769,1.08166 -0.35769,2.16322 -1.44201,2.88432 -0.3577,0 -1.08126,0.36076 -1.80277,0 -0.35769,0 -1.08125,-0.36075 -1.44201,-0.72151 l -12.61836,-7.57112 c -1.08126,-0.72152 -1.44202,-1.80267 -1.08126,-2.88423 0.72561,-2.16322 0.3577,-4.32644 -0.35769,-6.12911 1.80277,-2.16311 2.52326,-5.04744 1.44201,-7.93167 0.35769,-0.72151 0.35769,-1.80266 0,-2.16312 -0.7256,-0.72151 -1.44201,-1.08166 -2.52326,-0.72151 -1.08228,0.72151 -1.80277,1.44211 -2.88505,2.16322 -0.35769,2.52367 -1.44201,5.04744 -3.60451,6.85001"
       style="fill:#000000;fill-opacity:1;fill-rule:nonzero;stroke:none;stroke-width:3.60531068"
       id="path1969"
       inkscape:connector-curvature="0" />
    <path
       d="m 296.1497,49.20881 c 0,-4.6869 -3.6045,-8.29223 -8.6521,-8.29223 -1.8028,0 -3.9663,0.72152 -5.769,2.16322 -1.8028,1.80267 -2.5233,3.96579 -2.5233,6.12901 0,4.32634 3.6055,8.29222 8.2923,8.29222 2.1625,0 4.326,-0.72151 6.1288,-2.52377 1.8028,-1.80257 2.5233,-3.96579 2.5233,-5.76845"
       style="fill:#000000;fill-opacity:1;fill-rule:nonzero;stroke:none;stroke-width:3.60531068"
       id="path1973"
       inkscape:connector-curvature="0" />
    <path
       d="m 378.35145,91.39094 c 0,-4.68689 -3.96629,-8.29222 -8.65308,-8.29222 -1.80277,0 -4.32604,0.72151 -5.76907,2.52377 -1.80175,1.44212 -2.52326,3.60523 -2.52326,5.76845 0,4.32634 3.60554,8.29223 8.29233,8.29223 2.16352,0 4.32603,-0.72152 6.1288,-2.52377 1.80277,-1.80257 2.52428,-3.96579 2.52428,-5.76846"
       style="fill:#000000;fill-opacity:1;fill-rule:nonzero;stroke:none;stroke-width:3.60531068"
       id="path1977"
       inkscape:connector-curvature="0" />
  </g>
</svg>
